<svg xmlns="http://www.w3.org/2000/svg" viewBox="0 0 512 512"><path d="M66.065 313.806C29.635 313.806 0 343.442 0 379.871s29.635 66.065 66.065 66.065 66.065-29.635 66.065-66.065-29.636-66.065-66.065-66.065zm0 99.097c-18.217 0-33.032-14.815-33.032-33.032s14.815-33.032 33.032-33.032 33.032 14.815 33.032 33.032-14.815 33.032-33.032 33.032zM176.172 126.624c-36.429 0-66.065 29.635-66.065 66.065s29.635 66.065 66.065 66.065 66.065-29.635 66.065-66.065-29.636-66.065-66.065-66.065zm0 99.096c-18.217 0-33.032-14.815-33.032-33.032s14.815-33.032 33.032-33.032 33.032 14.815 33.032 33.032-14.815 33.032-33.032 33.032zM341.333 286.28c-36.429 0-66.065 29.635-66.065 66.065 0 36.429 29.635 66.065 66.065 66.065s66.065-29.635 66.065-66.065c0-36.43-29.636-66.065-66.065-66.065zm0 99.096c-18.217 0-33.032-14.815-33.032-33.032s14.815-33.032 33.032-33.032 33.032 14.815 33.032 33.032c.001 18.217-14.814 33.032-33.032 33.032zM445.935 66.065c-36.429 0-66.065 29.635-66.065 66.065s29.635 66.065 66.065 66.065S512 168.558 512 132.129s-29.635-66.064-66.065-66.064zm0 99.096c-18.217 0-33.032-14.815-33.032-33.032s14.815-33.032 33.032-33.032 33.032 14.815 33.032 33.032-14.814 33.032-33.032 33.032z"/><path d="M74.367 326.67l66.067-99.105 27.487 18.324-66.066 99.106zM198.606 243.917l21.147-25.376 99.095 82.584L297.7 326.5zM343.276 295.076l67.187-127.154 29.203 15.43-67.187 127.155z"/></svg>